HIERARCHY
ROOT Hips
{
	OFFSET 0.000000 0.000000 0.000000
	CHANNELS 6 Xposition Yposition Zposition Zrotation Yrotation Xrotation 
	JOINT LHipJoint
	{
		OFFSET 0.000000 0.000000 0.000000
		CHANNELS 3 Zrotation Yrotation Xrotation
		JOINT LeftUpLeg
		{
			OFFSET 1.363060 -1.794630 0.839290
			CHANNELS 3 Zrotation Yrotation Xrotation
			JOINT LeftLeg
			{
				OFFSET 2.448110 -6.726130 0.000000
				CHANNELS 3 Zrotation Yrotation Xrotation
				JOINT LeftFoot
				{
					OFFSET 2.562200 -7.039590 0.000000
					CHANNELS 3 Zrotation Yrotation Xrotation
					JOINT LeftToeBase
					{
						OFFSET 0.157640 -0.433110 2.322550
						CHANNELS 3 Zrotation Yrotation Xrotation
						End Site
						{
							OFFSET 0.000000 0.000000 0.000000
						}
					}
				}
			}
		}
	}
	JOINT RHipJoint
	{
		OFFSET 0.000000 0.000000 0.000000
		CHANNELS 3 Zrotation Yrotation Xrotation
		JOINT RightUpLeg
		{
			OFFSET -1.305520 -1.794630 0.839290
			CHANNELS 3 Zrotation Yrotation Xrotation
			JOINT RightLeg
			{
				OFFSET -2.542530 -6.985550 0.000000
				CHANNELS 3 Zrotation Yrotation Xrotation
				JOINT RightFoot
				{
					OFFSET -2.568260 -7.056230 0.000000
					CHANNELS 3 Zrotation Yrotation Xrotation
					JOINT RightToeBase
					{
						OFFSET -0.164730 -0.452590 2.363150
						CHANNELS 3 Zrotation Yrotation Xrotation
						End Site
						{
							OFFSET 0.000000 0.000000 0.000000
						}
					}
				}
			}
		}
	}
	JOINT LowerBack
	{
		OFFSET 0.000000 0.000000 0.000000
		CHANNELS 3 Zrotation Yrotation Xrotation
		JOINT Spine
		{
			OFFSET 0.028270 2.035590 -0.193380
			CHANNELS 3 Zrotation Yrotation Xrotation
			JOINT Spine1
			{
				OFFSET 0.056720 2.048850 -0.042750
				CHANNELS 3 Zrotation Yrotation Xrotation
				JOINT Neck
				{
					OFFSET 0.000000 0.000000 0.000000
					CHANNELS 3 Zrotation Yrotation Xrotation
					JOINT Neck1
					{
						OFFSET -0.054170 1.746240 0.172020
						CHANNELS 3 Zrotation Yrotation Xrotation
						JOINT Head
						{
							OFFSET 0.104070 1.761360 -0.123970
							CHANNELS 3 Zrotation Yrotation Xrotation
							End Site
							{
								OFFSET 0.000000 0.000000 0.000000
							}
						}
					}
				}
				JOINT LeftShoulder
				{
					OFFSET 0.000000 0.000000 0.000000
					CHANNELS 3 Zrotation Yrotation Xrotation
					JOINT LeftArm
					{
						OFFSET 3.362410 1.200890 -0.311210
						CHANNELS 3 Zrotation Yrotation Xrotation
						JOINT LeftForeArm
						{
							OFFSET 4.983000 -0.000000 -0.000000
							CHANNELS 3 Zrotation Yrotation Xrotation
							JOINT LeftHand
							{
								OFFSET 3.483560 -0.000000 -0.000000
								CHANNELS 3 Zrotation Yrotation Xrotation
								JOINT LeftFingerBase
								{
									OFFSET 0.000000 0.000000 0.000000
									CHANNELS 3 Zrotation Yrotation Xrotation
									JOINT LeftHandIndex1
									{
										OFFSET 0.715260 -0.000000 -0.000000
										CHANNELS 3 Zrotation Yrotation Xrotation
										End Site
										{
											OFFSET 0.000000 0.000000 0.000000
										}
									}
								}
								JOINT LThumb
								{
									OFFSET 0.000000 0.000000 0.000000
									CHANNELS 3 Zrotation Yrotation Xrotation
									End Site
									{
										OFFSET 0.000000 0.000000 0.000000
									}
								}
							}
						}
					}
				}
				JOINT RightShoulder
				{
					OFFSET 0.000000 0.000000 0.000000
					CHANNELS 3 Zrotation Yrotation Xrotation
					JOINT RightArm
					{
						OFFSET -3.136600 1.374050 -0.404650
						CHANNELS 3 Zrotation Yrotation Xrotation
						JOINT RightForeArm
						{
							OFFSET -5.241900 -0.000000 -0.000000
							CHANNELS 3 Zrotation Yrotation Xrotation
							JOINT RightHand
							{
								OFFSET -3.444170 -0.000000 -0.000000
								CHANNELS 3 Zrotation Yrotation Xrotation
								JOINT RightFingerBase
								{
									OFFSET 0.000000 0.000000 0.000000
									CHANNELS 3 Zrotation Yrotation Xrotation
									JOINT RightHandIndex1
									{
										OFFSET -0.622530 -0.000000 -0.000000
										CHANNELS 3 Zrotation Yrotation Xrotation
										End Site
										{
											OFFSET 0.000000 0.000000 0.000000
										}
									}
								}
								JOINT RThumb
								{
									OFFSET 0.000000 0.000000 0.000000
									CHANNELS 3 Zrotation Yrotation Xrotation
									End Site
									{
										OFFSET 0.000000 0.000000 0.000000
									}
								}
							}
						}
					}
				}
			}
		}
	}
}
MOTION
Frames: 6
Frame Time: 0.008333
-0.130149 17.524727 8.031421 -5.333060 -5.251945 1.571590 3.381072 2.217532 1.100795 -13.975356 -10.748436 -30.339516 3.993325 12.762548 38.054955 -1.874500 11.281262 -2.249277 0.010800 0.670800 1.843400 -5.157197 -3.289546 0.056344 36.351533 5.344121 5.242401 -1.155300 -4.495002 16.493314 0.121201 -1.772190 -5.832518 -0.000200 -0.093900 0.258100 6.384929 2.622027 6.456623 1.560165 3.626690 -0.695130 0.000936 2.230422 -3.816293 -7.325169 -2.760571 -12.650870 4.118641 -2.896267 16.117374 2.987000 -1.762400 9.943700 -7.220176 3.430812 -2.225656 -84.521717 8.027045 17.084107 10.664271 -19.630936 -1.972426 -0.797667 -2.772188 11.952938 14.801747 23.205259 6.755300 -7.125000 0.000000 0.000000 -16.144400 56.193200 -4.515100 5.426989 -2.499942 -2.034829 79.139145 2.998129 21.850634 -17.338306 25.570315 -4.962323 0.868264 -0.213131 3.573520 -13.803926 10.270519 -2.707000 7.125000 0.000000 0.000000 8.745300 -19.306600 5.425300
-0.126687 17.517433 8.124081 -5.352305 -5.351698 1.622515 3.350783 2.207437 1.093291 -13.832673 -10.841954 -30.291939 3.702834 12.407700 36.775987 -1.899058 11.386842 -1.843966 0.011538 0.693188 1.904968 -5.140381 -3.285190 0.047109 36.306397 5.212327 5.624579 -1.133769 -4.423491 16.309313 0.106825 -1.712133 -5.954995 -0.000631 -0.154299 0.423982 6.424721 2.689391 6.375854 1.547351 3.709544 -0.701599 -0.058245 2.272503 -3.776958 -7.335722 -2.776103 -12.653931 4.136276 -2.918720 16.190751 2.994504 -1.773840 9.974330 -7.227762 3.432118 -2.216024 -84.525088 7.997512 16.992402 10.538128 -19.407278 -1.918998 -0.807758 -2.753507 11.780915 14.900799 22.900153 6.733404 -7.125000 0.000000 0.000000 -15.842035 55.903751 -4.316619 5.412192 -2.497617 -2.041598 79.125532 3.095652 22.082476 -17.561827 25.863936 -5.101589 0.808564 -0.062718 3.143130 -13.132670 8.622192 -2.143910 7.125000 0.000000 0.000000 9.336006 -21.152157 5.391718
-0.123433 17.510000 8.216301 -5.404331 -5.430910 1.685419 3.321032 2.195936 1.085168 -13.629581 -10.991277 -30.243772 3.419436 12.054241 35.513932 -1.917560 11.462532 -1.507464 0.013887 0.755526 2.076397 -5.125072 -3.281271 0.036968 36.301012 5.060385 6.002873 -1.108695 -4.343067 16.098568 0.096437 -1.674651 -6.071501 -0.000716 -0.161862 0.444725 6.488987 2.750770 6.292005 1.543943 3.784464 -0.695313 -0.107681 2.311448 -3.703561 -7.339813 -2.790240 -12.749748 4.139421 -2.933649 16.257560 2.994298 -1.780977 10.021345 -7.229017 3.431057 -2.210126 -84.551691 7.989436 16.922999 10.466726 -19.281818 -1.890496 -0.814974 -2.737972 11.617004 14.992177 22.638346 6.716823 -7.125000 0.000000 0.000000 -15.578308 55.656439 -4.146904 5.402013 -2.495045 -2.045567 79.089430 3.278447 22.300290 -17.740213 26.096467 -5.211082 0.767172 0.047632 2.655934 -12.658725 7.450965 -1.747983 7.125000 0.000000 0.000000 9.755775 -22.463340 5.363244
-0.120528 17.502335 8.307786 -5.511188 -5.475759 1.768362 3.292181 2.182082 1.076013 -13.325444 -11.233944 -30.194616 3.147904 11.703102 34.280171 -1.925934 11.488224 -1.286062 0.018931 0.884690 2.431596 -5.112285 -3.278083 0.025308 36.362122 4.874742 6.374667 -1.077694 -4.247734 15.843088 0.092719 -1.674929 -6.178021 -0.000224 -0.081042 0.222687 6.594189 2.802136 6.203006 1.556266 3.846111 -0.667691 -0.140814 2.345149 -3.573187 -7.333093 -2.802041 -13.000722 4.118328 -2.935991 16.313381 2.981197 -1.780915 10.095768 -7.219682 3.426038 -2.210476 -84.617157 8.017252 16.890899 10.486888 -19.320616 -1.903690 -0.817383 -2.727700 11.466664 15.070721 22.448966 6.709135 -7.125000 0.000000 0.000000 -15.379213 55.479608 -4.025306 5.399555 -2.492061 -2.044854 79.015707 3.603878 22.494638 -17.843100 26.226813 -5.270770 0.756405 0.090967 2.073716 -12.514826 7.077798 -1.631675 7.125000 0.000000 0.000000 9.889613 -22.880660 5.343316
-0.118085 17.493560 8.393027 -5.690942 -5.591839 1.849497 3.263882 2.169032 1.066165 -12.912897 -11.436425 -30.177592 2.889237 11.351507 33.062294 -1.937352 11.532557 -1.044878 0.019832 0.908547 2.497205 -5.103321 -3.273479 0.016834 36.509567 4.738671 6.762384 -1.041734 -4.137954 15.546583 0.090991 -1.658766 -6.189643 -0.000100 -0.059411 0.163256 6.763012 2.873323 6.230351 1.576003 3.952177 -0.651567 -0.196805 2.398610 -3.529598 -7.318280 -2.805136 -13.211624 4.080432 -2.926580 16.310582 2.962482 -1.776390 10.139676 -7.209955 3.416691 -2.213563 -84.671317 8.063605 16.833641 10.514829 -19.368111 -1.915266 -0.805981 -2.735102 11.458007 14.977675 22.535104 6.683451 -7.125000 0.000000 0.000000 -15.535246 55.547954 -4.094022 5.398140 -2.484950 -2.042083 78.944260 3.944521 22.559543 -17.896241 26.293843 -5.292365 0.791932 0.017161 1.975584 -12.889432 8.016437 -1.937647 7.125000 0.000000 0.000000 9.549576 -21.840549 5.372174
-0.115367 17.484366 8.476190 -5.882453 -5.724515 1.937627 3.235997 2.156378 1.057039 -12.478353 -11.630728 -30.177843 2.637287 11.000530 31.856272 -1.947844 11.573831 -0.808982 0.019332 0.896811 2.464932 -5.095067 -3.268764 0.009562 36.665792 4.605985 7.146517 -1.003440 -4.020463 15.227962 0.089252 -1.634336 -6.174205 -0.000333 -0.026155 0.071879 6.942264 2.945636 6.290668 1.596544 4.065091 -0.647886 -0.258047 2.454580 -3.531819 -7.304657 -2.797762 -13.383543 4.042770 -2.904176 16.296777 2.946441 -1.766649 10.170917 -7.202002 3.406705 -2.217579 -84.716843 8.123439 16.758197 10.529478 -19.390461 -1.918704 -0.794625 -2.747106 11.495874 14.868150 22.694116 6.667876 -7.125000 0.000000 0.000000 -15.752892 55.688155 -4.206817 5.396495 -2.476486 -2.039472 78.875447 4.269290 22.587150 -17.933236 26.340182 -5.302210 0.839422 -0.089179 2.052891 -13.403985 9.309034 -2.359570 7.125000 0.000000 0.000000 9.083652 -20.406214 5.413188
